PathFileType	4	(X/Y/Z)	C:/Users/opensim2020/Desktop/walking_exp_matlab/subject03_walking13_straight_02.trc	
DataRate	CameraRate	NumFrames	NumMarkers	Units	OrigDataRate	OrigDataStartFrame	OrigNumFrames	
100.00	100.00	7	46	mm	100.00	1151	193	
Frame#	Time	LFHD			RFHD			LBHD			RBHD			C7			T10			CLAV			STRN			RBAK			LSHO			LUPA			LELB			LFRM			LWRA			LWRB			LFIN			RSHO			RUPA			RELB			RFRM			RWRA			RWRB			RFIN			LASI			RASI			LPSI			RPSI			LTHI			LKNE			LTIB			LANK			LHEE			LTOE			RTHI			RKNE			RTIB			RANK			RHEE			RTOE			*39			*40			*41			*42			*43			*44			*45			
		X1	Y1	Z1	X2	Y2	Z2	X3	Y3	Z3	X4	Y4	Z4	X5	Y5	Z5	X6	Y6	Z6	X7	Y7	Z7	X8	Y8	Z8	X9	Y9	Z9	X10	Y10	Z10	X11	Y11	Z11	X12	Y12	Z12	X13	Y13	Z13	X14	Y14	Z14	X15	Y15	Z15	X16	Y16	Z16	X17	Y17	Z17	X18	Y18	Z18	X19	Y19	Z19	X20	Y20	Z20	X21	Y21	Z21	X22	Y22	Z22	X23	Y23	Z23	X24	Y24	Z24	X25	Y25	Z25	X26	Y26	Z26	X27	Y27	Z27	X28	Y28	Z28	X29	Y29	Z29	X30	Y30	Z30	X31	Y31	Z31	X32	Y32	Z32	X33	Y33	Z33	X34	Y34	Z34	X35	Y35	Z35	X36	Y36	Z36	X37	Y37	Z37	X38	Y38	Z38	X39	Y39	Z39	X40	Y40	Z40	X41	Y41	Z41	X42	Y42	Z42	X43	Y43	Z43	X44	Y44	Z44	X45	Y45	Z45	X46	Y46	Z46	

73	0.720	1457.77795	399.74005	1594.99817	1326.39172	420.31372	1600.14673	1471.43286	528.53125	1557.25244	1342.32581	544.14911	1562.24915	1416.87280	573.66180	1394.65710	1416.27148	605.56641	1080.29797	1401.27295	452.23129	1318.54553	1406.35107	407.08762	1154.31787	1333.32043	636.69690	1214.24548	1559.51477	481.17310	1359.03931	1641.37817	443.27789	1176.48523	1659.05322	398.51743	1064.54578	1647.83069	306.18195	976.61346	1603.11072	222.89275	899.89227	1653.79578	239.25372	884.98474	1637.92114	173.22966	837.72644	1249.01099	523.38428	1338.70752	1179.05969	552.78320	1117.31238	1163.38464	550.88666	1004.40442	1157.10400	559.25763	867.49957	1185.06018	542.77057	766.35425	1146.17065	581.26300	769.07373	1154.02344	573.17413	693.70099	1532.31946	440.63058	919.00073	1293.02441	435.12949	921.89728	1473.30273	601.18219	938.22614	1325.64905	598.12213	942.21442	1570.55676	539.30573	625.12048	1539.87952	580.07965	449.14197	1548.14514	708.01611	292.12958	1515.57373	825.34937	116.29874	1483.37109	880.24957	100.44098	1478.13342	700.95337	33.63793	1242.60156	419.89932	632.10864	1283.37915	339.47177	475.00620	1272.24646	317.08353	285.47583	1311.80798	264.80560	73.29498	1364.03918	299.14566	32.50612	1330.96753	121.70182	66.39143																					 
74	0.730	1457.82910	386.37619	1594.54285	1326.26331	406.35974	1600.08801	1471.33240	515.70453	1556.70325	1341.24463	530.13544	1561.74194	1415.29785	559.84137	1394.11438	1414.86633	590.81958	1079.47314	1400.36218	437.98480	1318.07532	1405.35583	392.52560	1154.04529	1331.37451	621.95038	1213.54346	1558.63184	468.29648	1358.44177	1640.83484	431.67993	1175.63391	1658.35620	386.66379	1064.09497	1646.30505	292.22293	979.31750	1600.60132	206.70831	906.00378	1650.97839	222.57921	889.79816	1634.99072	154.98581	845.80615	1247.70154	508.26666	1338.28955	1177.72607	537.09290	1116.81104	1162.17908	535.50635	1003.93042	1155.93848	544.19525	867.07520	1184.11072	528.11053	765.75836	1144.92749	566.74512	768.62494	1153.14844	559.48877	693.18909	1530.87024	425.12869	918.10400	1291.59143	419.89301	922.61993	1472.23926	586.30249	937.26910	1324.65454	583.32312	942.02899	1570.03125	523.33954	623.76569	1540.85303	563.19965	447.23700	1548.49646	696.44708	293.94830	1515.67688	819.74536	122.94276	1483.08765	874.84546	109.87110	1477.99634	700.34241	33.42081	1242.07300	401.93439	633.61121	1282.48474	323.14905	475.58185	1273.26111	305.76730	284.21985	1312.03162	259.82693	71.95107	1365.30103	297.09186	35.08457	1331.69836	116.82298	52.37770																					 
75	0.740	1457.85437	373.03674	1594.60303	1326.14514	392.36249	1600.55920	1470.34192	502.13696	1556.16443	1340.47632	516.22632	1561.81348	1413.73645	546.18201	1393.88220	1413.49841	576.07391	1079.09900	1399.44995	423.85757	1318.12622	1404.39783	378.00247	1154.39600	1329.50146	607.20642	1213.08521	1557.79956	455.35007	1358.13647	1640.40186	420.40802	1174.83789	1657.66980	375.16052	1063.52734	1644.84595	278.98502	982.00891	1598.23352	191.37981	911.91461	1648.24585	206.79601	894.45013	1632.05627	137.50844	853.63123	1246.30261	493.06308	1338.20886	1176.31982	521.04663	1116.48816	1160.98694	519.67035	1003.59229	1154.83960	528.60486	866.71118	1183.21277	513.21649	765.30255	1143.71777	551.32220	768.31262	1152.47778	544.37122	692.68915	1529.22388	409.43542	917.48889	1290.02319	404.75137	923.44989	1471.16650	571.13104	936.51447	1323.62366	568.26501	941.97601	1569.63586	506.17502	622.29785	1542.00793	544.60339	445.14984	1548.69019	683.35443	296.06940	1515.42126	812.81213	130.70158	1482.35242	867.82391	120.83382	1477.89185	699.63202	33.40926	1240.94189	384.63342	635.55878	1281.91174	307.35953	476.94525	1273.12500	293.63647	284.62567	1310.92090	254.66228	71.17414	1363.50854	294.77118	36.89763	1333.58801	112.90952	43.93300																					 
76	0.750	1457.83936	359.66690	1595.04358	1326.10876	378.22397	1601.43262	1469.84155	488.93918	1556.38525	1339.77966	502.05405	1562.32837	1411.90601	532.34253	1393.96045	1412.32275	561.36285	1079.17615	1398.52173	409.86646	1318.65833	1403.34985	363.58456	1154.93359	1327.55322	592.61523	1213.06641	1556.96875	442.46625	1358.15771	1639.84607	409.42990	1174.26587	1657.12036	364.24945	1063.32532	1643.36731	266.42050	984.38593	1595.96326	177.08595	917.51953	1645.76819	191.89825	898.93402	1629.30627	121.18209	861.20990	1244.82446	477.91022	1338.43079	1174.85730	504.69479	1116.47412	1159.76782	503.40546	1003.53784	1153.70178	512.46265	866.62653	1182.38843	497.27179	765.34052	1142.49109	535.22772	768.23608	1151.63342	529.14081	692.63141	1527.47803	393.71991	917.06409	1288.27893	389.79840	924.42816	1470.29163	555.87659	936.02740	1322.59460	553.12451	942.43945	1569.23694	487.93033	620.86285	1543.62097	524.39618	442.97556	1548.76086	668.49152	298.58011	1513.80322	803.53705	138.81485	1480.28027	858.24316	132.62825	1477.46521	698.33844	33.29789	1238.89478	368.47107	637.33911	1280.36145	291.65585	479.41513	1271.53540	281.26868	285.65936	1310.79932	248.99344	71.27017	1361.88806	292.37097	38.91210	1333.26074	108.27203	41.43620																					 
77	0.760	1457.81104	346.25729	1595.70398	1325.99756	364.12537	1602.55347	1468.98840	475.52902	1556.86914	1338.65430	487.86295	1563.21814	1410.07361	518.33130	1394.62646	1411.28918	546.83203	1079.65430	1397.54919	395.86530	1319.52087	1402.33838	349.27756	1156.01062	1325.41357	577.97137	1213.54370	1556.21350	429.51785	1358.58179	1639.08691	398.63077	1173.96167	1656.49365	353.53503	1063.22388	1641.92126	254.50211	986.64502	1593.82397	163.71172	922.72052	1643.18787	178.20525	902.87921	1626.67615	106.02302	868.37659	1243.43164	462.73163	1339.08459	1173.48352	488.02032	1116.79041	1158.62610	486.70566	1003.84808	1152.68091	495.71722	866.92688	1181.72693	480.98270	765.61267	1141.38245	518.32068	768.50867	1151.01099	512.62433	692.75647	1525.69458	378.14444	917.03003	1286.48364	374.90189	925.77332	1469.38757	540.56366	935.72455	1321.75110	538.09155	943.48871	1569.12476	468.76468	619.41565	1545.75598	502.67822	440.81131	1548.55774	651.98059	301.54196	1511.82800	792.95862	148.16264	1476.91321	846.07324	145.46693	1477.36938	697.01074	33.55836	1236.58606	354.13657	639.03680	1279.35950	275.56729	481.56213	1270.45898	269.55444	287.01901	1311.43628	247.01147	71.60824	1361.91687	291.01077	39.67809	1331.96252	105.75426	39.43121																					 
78	0.770	1457.69568	332.86319	1596.55737	1325.89624	350.04636	1603.83630	1467.68420	461.70901	1557.62061	1337.95618	473.83234	1564.40796	1408.37976	504.29129	1395.60999	1410.30933	532.48694	1080.39063	1396.73120	381.92963	1320.66541	1401.44641	334.96973	1157.23584	1323.07922	563.40381	1214.44141	1555.28259	416.67017	1359.32910	1638.24780	387.89038	1174.10999	1655.65063	343.10669	1063.40662	1640.49622	243.13321	988.73517	1591.92627	151.28383	927.43549	1640.72205	165.58553	906.29138	1624.33655	92.10073	874.93848	1242.14514	447.47815	1340.17126	1172.16565	471.17361	1117.63477	1157.61963	469.60721	1004.59845	1151.67664	478.52414	867.64288	1181.31470	464.36484	766.37280	1140.25061	500.69925	769.18994	1150.19604	495.80740	693.62006	1523.71277	362.72620	917.23218	1284.74243	360.37961	927.46387	1468.57178	525.31433	935.59662	1320.95630	523.29462	944.91541	1569.14661	448.94296	617.93921	1548.02319	479.61182	438.90155	1548.10632	634.16046	305.14648	1509.71851	779.66980	157.58870	1472.62439	830.51117	158.67430	1476.24646	695.51685	33.17023	1235.00549	340.94080	640.20563	1278.84460	260.00949	483.36609	1269.17847	258.98578	287.84726	1312.45520	245.98042	71.97578	1362.10559	290.62750	39.92459	1333.16833	104.50382	38.16272																					 
79	0.780	1457.49548	319.54047	1597.35193	1325.67700	336.12802	1604.89404	1467.42261	448.73676	1558.61401	1337.13721	459.90384	1565.53271	1406.87756	490.37585	1396.76465	1409.37341	518.47028	1081.16846	1395.90332	368.01874	1321.72302	1400.61377	320.79803	1158.33130	1320.49036	548.60376	1215.33154	1554.22815	403.82825	1360.38074	1637.27844	377.08362	1174.68188	1654.61145	333.09967	1063.86438	1639.06958	232.42178	990.83734	1590.24780	139.70723	931.63684	1638.53064	153.64215	909.43335	1622.28003	79.34338	880.87909	1240.96948	432.36960	1341.40527	1170.88965	454.23117	1118.78223	1156.73303	452.24658	1005.74445	1150.77002	460.68619	868.77063	1180.63745	446.40213	767.57806	1138.96069	482.51126	770.30084	1149.50256	477.75629	694.47601	1521.78833	348.04352	917.54022	1283.09338	345.84476	929.49677	1467.93616	510.43542	935.67889	1320.36206	508.75458	946.50714	1569.24939	428.59790	616.59125	1550.17627	455.92877	437.44421	1547.43811	614.35358	308.91696	1507.35425	762.78674	165.82462	1468.32971	811.61169	171.19107	1474.83289	692.69727	33.52046	1234.20435	327.44363	641.13971	1278.61450	246.18019	484.05630	1269.26758	250.30592	288.05728	1313.38269	244.38058	72.27546	1362.24731	290.04892	40.16686	1334.38599	103.20902	37.56461																					 
